<?xml version="1.0" encoding="utf-8"?>
<!-- Generator: Adobe Illustrator 19.0.0, SVG Export Plug-In . SVG Version: 6.00 Build 0)  -->
<svg version="1.1" id="Layer_1" xmlns="http://www.w3.org/2000/svg" xmlns:xlink="http://www.w3.org/1999/xlink" x="0px" y="0px"
	 viewBox="0 0 800 800" style="enable-background:new 0 0 800 800;" xml:space="preserve">
<style type="text/css">
	.st0{fill:#E31E30;}
</style>
<path class="st0" d="M400,799.6C179.5,799.6,0.2,620.3,0.2,399.8S179.5,0,400,0s399.8,179.4,399.8,399.8S620.4,799.6,400,799.6
	 M400,39.6c-198.6,0-360.2,161.6-360.2,360.2C39.8,598.4,201.4,760,400,760s360.2-161.6,360.2-360.2S598.6,39.6,400,39.6"/>
<path class="st0" d="M127.3,438.7c21.3,0,29-17.4,29-29.2c0-13.7-9.8-28.4-28.6-28.4c-19.6,0-28.8,15.3-28.8,28.4
	C98.9,427,111.4,438.7,127.3,438.7 M154.5,326.8c0-10.8,8.7-19.5,19.5-19.5h14.4v160.1h-32.3v-11.3h-0.8
	c-2.8,4.7-13.5,14.2-33.5,14.2c-32.3,0-56-26.6-56-60.7c0-38.4,29.5-59.6,55.3-59.6c23.1,0,33.3,10.3,33.3,10.3v-33.5H154.5z"/>
<path class="st0" d="M317.9,411.3c0-34.5-25.3-61.9-59.8-61.9s-59.5,29.2-59.5,60.9c0,33.7,27.6,60.1,60.1,60.1
	c11.7,0,22.9-3.5,32.3-10.2c9.6-6.5,17.6-16.3,23.1-29h-26.3c-5,0-9.5,1.9-13,4.9c-3.9,3.4-8.8,5.7-16.1,5.7
	c-13.3,0-24.5-8-26.6-21.5h85C317.6,417.6,317.9,415.8,317.9,411.3 M232.6,397.4c1.4-6.7,8.2-19.4,25.7-19.4
	c17.6,0,24.3,12.7,25.7,19.4H232.6z"/>
<path id="XMLID_5_" class="st0" d="M328.9,326.8c0-10.8,8.7-19.5,19.5-19.5h14.4v159.4h-33.9V326.8z"/>
<path class="st0" d="M726.5,411.3c0-34.5-25.3-61.9-59.9-61.9c-34.5,0-59.4,29.2-59.4,60.9c0,33.7,27.6,60.1,60.1,60.1
	c11.6,0,22.9-3.5,32.3-10.2c9.6-6.5,17.6-16.3,23.1-29h-26.3c-5,0-9.5,1.9-13,4.9c-3.9,3.4-8.8,5.7-16.1,5.7
	c-13.3,0-24.5-8-26.6-21.5h85C726.1,417.6,726.5,415.8,726.5,411.3 M641.1,397.4c1.4-6.7,8.2-19.4,25.7-19.4
	c17.6,0,24.3,12.7,25.7,19.4H641.1z"/>
<path id="XMLID_2_" class="st0" d="M377.5,372.8c0-10.8,8.7-19.5,19.5-19.5h14.4V416c0,7.8,0,22.7,18.2,22.7
	c9.8,0,19.4-5.1,19.4-23.1v-42.8c0-10.8,8.7-19.5,19.5-19.5h14.4v113.4h-32v-12.1h-0.4c-6.9,14.5-20.8,15.7-29.4,15.7
	c-7,0-23.3-1.6-33.3-14.3c-9-11.2-10.2-19.4-10.2-34.9v-48.3H377.5z"/>
<path id="XMLID_1_" class="st0" d="M537.5,458.3c-3.5,5.1-9.4,8.4-16,8.4h-30.3l43.9-59.8l-39-53.6h40.7l17.2,27.9l13.8-18.7
	c3.5-5.5,9.6-9.2,16.6-9.2h29.3L575.3,406l44,60.7h-41.5l-22.7-35.2L537.5,458.3z"/>
</svg>
